<svg clip-rule="evenodd" fill-rule="evenodd" height="512" stroke-linejoin="round" stroke-miterlimit="2" viewBox="0 0 24 24" width="512" xmlns="http://www.w3.org/2000/svg"><g transform="translate(-248.397 -124.56)"><path d="m252.397 137.024c-.3-.173-.579-.386-.828-.636-.75-.75-1.172-1.767-1.172-2.828v-1-.002c0-.175.046-.352.143-.513l3-5c.18-.301.506-.485.857-.485h12c.351 0 .677.184.858.485l3 5c.096.162.142.339.142.515v1c0 1.061-.421 2.078-1.171 2.828-.25.25-.529.463-.829.636v7.036c0 .663-.263 1.299-.732 1.768-.469.468-1.105.732-1.768.732-2.691 0-8.309 0-11 0-.663 0-1.299-.264-1.768-.732-.468-.469-.732-1.105-.732-1.768zm14 .536c-1.061 0-2.078-.422-2.828-1.172-.06-.059-.117-.12-.172-.183-.055.063-.112.124-.171.183-.751.75-1.768 1.172-2.829 1.172s-2.078-.422-2.828-1.172c-.06-.059-.117-.12-.172-.183-.055.063-.112.124-.171.183-.751.75-1.768 1.172-2.829 1.172v6.5c0 .132.053.26.147.353.093.094.221.147.353.147h2.5v-4c0-.552.448-1 1-1h4c.552 0 1 .448 1 1v4h2.5c.133 0 .26-.053.354-.147.093-.093.146-.221.146-.353zm-7 4v3h2v-3zm9-8.723-2.566-4.277h-10.868l-2.566 4.277v.723c0 .53.211 1.039.586 1.414s.884.586 1.414.586c.531 0 1.039-.211 1.414-.586s.586-.884.586-1.414v-1c0-.552.448-1 1-1s1 .448 1 1v1c0 .53.211 1.039.586 1.414s.884.586 1.414.586c.531 0 1.039-.211 1.414-.586s.586-.884.586-1.414c0 0 0-.5 0-1 0-.552.448-1 1-1s1 .448 1 1v1c0 .53.211 1.039.586 1.414s.884.586 1.414.586c.531 0 1.039-.211 1.414-.586s.586-.884.586-1.414z"/></g></svg>