<svg id="Online_Shopping-Shopping_Bag-Smartphone-List-Commerce" height="512" viewBox="0 0 64 64" width="512" xmlns="http://www.w3.org/2000/svg" data-name="Online Shopping-Shopping Bag-Smartphone-List-Commerce"><path d="m45.41 53.59a1.955 1.955 0 0 1 .59 1.41 2.006 2.006 0 0 1 -2 2h-4a2.015 2.015 0 0 1 -2-2 2.006 2.006 0 0 1 2-2h4a1.955 1.955 0 0 1 1.41.59z" fill="#bddbff"/><path d="m39.83 15.17a4.008 4.008 0 1 1 -2.83-1.17 4.025 4.025 0 0 1 2.83 1.17z" fill="#bddbff"/><path d="m37 29v32l-4-5v-27z" fill="#bddbff"/><path d="m33 56 4 5h-8z" fill="#bddbff"/><path d="m33 29v27l-4 5v-32z" fill="#bddbff"/><path d="m23 29h-20v32h26v-32zm-3 15h-8a3.995 3.995 0 0 1 -4-4v-7h4v7h8v-7h4v7a4 4 0 0 1 -1 2.64 1.537 1.537 0 0 1 -.17.19 4.025 4.025 0 0 1 -2.83 1.17z" fill="#bddbff"/><path d="m24 33v7a4 4 0 0 1 -1 2.64v-9.64z" fill="#bddbff"/><g fill="#3d9ae2"><path d="m62 8v48a6 6 0 0 1 -6 6h-16v-2h16a4 4 0 0 0 4-4v-48a4 4 0 0 0 -4-4h-28a4 4 0 0 0 -4 4v18h-2v-18a6 6 0 0 1 6-6h28a6 6 0 0 1 6 6z"/><path d="m44 56h-4v2h4a3 3 0 0 0 0-6h-4v2h4a1 1 0 0 1 0 2z"/><path d="m35 6h2v2h-2z"/><path d="m39 6h6v2h-6z"/><path d="m24 32h-4a1 1 0 0 0 -1 1v6h-6v-6a1 1 0 0 0 -1-1h-4a1 1 0 0 0 -1 1v7a5.006 5.006 0 0 0 5 5h8a5.006 5.006 0 0 0 5-5v-7a1 1 0 0 0 -1-1zm-15 8v-6h2v8.829a3.006 3.006 0 0 1 -2-2.829zm4 1h6v2h-6zm10-1a3.006 3.006 0 0 1 -2 2.829v-8.829h2z"/><path d="m37 28h-34a1 1 0 0 0 -1 1v32a1 1 0 0 0 1 1h34a1 1 0 0 0 1-1v-32a1 1 0 0 0 -1-1zm-9 32h-24v-30h24zm2-30h2v25.65l-2 2.5zm1.08 30 1.92-2.4 1.92 2.4zm4.92-1.85-2-2.5v-25.65h2z"/><path d="m32 18a5 5 0 1 0 9.167-2.753l1.54-1.54-1.414-1.414-1.54 1.54a4.992 4.992 0 0 0 -7.753 4.167zm5-3a2.951 2.951 0 0 1 1.285.3l-2.992 2.992 1.414 1.414 2.993-2.991a2.951 2.951 0 0 1 .3 1.285 3 3 0 1 1 -3-3z"/><path d="m45 15h6v2h-6z"/><path d="m45 19h6v2h-6z"/><path d="m42 30h14v2h-14z"/><path d="m42 34h14v2h-14z"/><path d="m42 38h14v2h-14z"/><path d="m42 42h14v2h-14z"/></g></svg>