<svg height="512" viewBox="0 0 64 64" width="512" xmlns="http://www.w3.org/2000/svg"><g id="Shopping-Delivery-Smartphone-Shopping_Bag-Man" data-name="Shopping-Delivery-Smartphone-Shopping Bag-Man"><g fill="#bddbff"><path d="m55 16h-8v11a2.006 2.006 0 0 0 2 2h10a2.006 2.006 0 0 0 2-2v-11z"/><path d="m51 9h4v7h-8v9h-8v-16h4z"/><path d="m45 33-2 14h-6l2-14z"/><path d="m37 36.9v10.1h-9l-1.82-14.18.82-.82 3 1 .7-2.8 2.74 1.22a6 6 0 0 1 3.56 5.48z"/><path d="m33 10.86a1 1 0 0 1 .73 1.21l-.29 1.15a1.969 1.969 0 0 1 -1.44 1.44 1.783 1.783 0 0 1 -.8.05 59.341 59.341 0 0 0 -6.2-.71 59.341 59.341 0 0 0 -6.2.71 1.783 1.783 0 0 1 -.8-.05 1.969 1.969 0 0 1 -1.44-1.44l-.29-1.15a1 1 0 0 1 .73-1.21.355.355 0 0 1 .1-.02c2.01-.28 6.21-.84 7.9-.84s5.89.56 7.9.84a.355.355 0 0 1 .1.02z"/><path d="m33 8v2.86a.355.355 0 0 0 -.1-.02c-2.01-.28-6.21-.84-7.9-.84s-5.89.56-7.9.84a.355.355 0 0 0 -.1.02v-3.24a1 1 0 0 1 .55-.9c1.51-.74 5.71-2.72 7.45-2.72s5.94 1.98 7.45 2.72a1 1 0 0 1 .55.9z"/><path d="m30.7 30.2-.7 2.8-3-1-1-2 2-1z"/><path d="m26 30 1 2-.82.82-1.18 1.18-1.18-1.18-.82-.82 1-2z"/><path d="m26.18 32.82-1.18 1.18-1.18-1.18-.82-.82 1-2-2-1-2.7 1.2-2.74 1.22a6.08 6.08 0 0 0 -2.12 1.58h2.56a4 4 0 0 1 4 4v10h7z"/></g><path d="m21 17h2v2h-2z" fill="#3d9ae2"/><path d="m27 17h2v2h-2z" fill="#3d9ae2"/><path d="m17 32h-10a5 5 0 0 0 -5 5v20a5 5 0 0 0 5 5h10a5 5 0 0 0 5-5v-20a5 5 0 0 0 -5-5zm3 25a3.009 3.009 0 0 1 -3 3h-10a3.009 3.009 0 0 1 -3-3v-20a3.009 3.009 0 0 1 3-3h10a3.009 3.009 0 0 1 3 3z" fill="#3d9ae2"/><path d="m10 36h4v2h-4z" fill="#3d9ae2"/><path d="m6 36h2v2h-2z" fill="#3d9ae2"/><path d="m10 56h4v2h-4z" fill="#3d9ae2"/><path d="m11 44h2a1 1 0 0 1 1 1h2a3 3 0 0 0 -3-3v-1h-2v1a3 3 0 0 0 0 6h2a1 1 0 0 1 0 2h-2a1 1 0 0 1 -1-1h-2a3 3 0 0 0 3 3v1h2v-1a3 3 0 0 0 0-6h-2a1 1 0 0 1 0-2z" fill="#3d9ae2"/><path d="m61 15h-5v-6a1 1 0 0 0 -1-1h-3v-1a5 5 0 0 0 -10 0v1h-3a1 1 0 0 0 -1 1v18a2.974 2.974 0 0 0 .78 2 2.974 2.974 0 0 0 -.78 2v1.93l-.29 2a6.976 6.976 0 0 0 -3.86-4.42l-4.85-2.16v-2.43a8.06 8.06 0 0 0 3.74-4.92h.26a2.994 2.994 0 0 0 .42-5.96 2.976 2.976 0 0 0 .99-1.57l.29-1.15a1.994 1.994 0 0 0 -.28-1.61 1.907 1.907 0 0 0 -.42-.43v-2.66a1.978 1.978 0 0 0 -1.11-1.79c-2.15-1.06-6.03-2.83-7.89-2.83s-5.74 1.77-7.89 2.83a1.978 1.978 0 0 0 -1.11 1.79v2.66a1.907 1.907 0 0 0 -.42.43 1.994 1.994 0 0 0 -.28 1.61l.29 1.14a2.907 2.907 0 0 0 .99 1.58 2.994 2.994 0 0 0 .42 5.96h.26a8.012 8.012 0 0 0 2.08 3.66 7.74 7.74 0 0 0 1.66 1.26v2.43l-2.41 1.07.82 1.83 2.57-1.14.68.34-.37.73-1.61.54.64 1.9 1.41-.48.04.04-.48 3.69 1.99.26.28-2.24a.935.935 0 0 0 .88 0l1.42 11.11h-2.86v2h19a1 1 0 0 0 .99-.86l1.9-13.29a2.992 2.992 0 0 0 2.11-2.85v-1.18a3 3 0 0 0 1 .18h10a3.009 3.009 0 0 0 3-3v-11a1 1 0 0 0 -1-1zm-28 2a1 1 0 0 1 0 2zm-16 2a1 1 0 0 1 0-2zm12.53 11.77-.24.94-1.58-.53-.37-.73.68-.34zm-11.53-23.15c3.24-1.59 5.99-2.62 7-2.62s3.76 1.03 7 2.62v2.09c-2.31-.31-5.53-.71-7-.71s-4.69.4-7 .71zm-.47 5.36-.29-1.15a76.167 76.167 0 0 1 7.76-.83 76.167 76.167 0 0 1 7.76.83l-.29 1.15a1 1 0 0 1 -.97.76.66.66 0 0 1 -.14-.01 55.906 55.906 0 0 0 -6.36-.73 55.906 55.906 0 0 0 -6.36.73 1 1 0 0 1 -1.11-.75zm3.23 10.26a5.928 5.928 0 0 1 -1.76-4.24v-3.3a52.7 52.7 0 0 1 6-.7 52.7 52.7 0 0 1 6 .7v3.3a6 6 0 0 1 -6 6 5.928 5.928 0 0 1 -4.24-1.76zm4.24 9.35-.78-.79.4-.8h.76l.4.8zm2-4.21-1.24.62h-1.52l-1.24-.62v-1.64a7.9 7.9 0 0 0 2 .26 8.242 8.242 0 0 0 2-.26zm9 17.62h-7.12l-1.65-12.82.04-.04 2.41.81a1.185 1.185 0 0 0 .32.05 1 1 0 0 0 .48-.12 1.017 1.017 0 0 0 .49-.64l.41-1.64 1.65.73a5 5 0 0 1 2.97 4.57zm8-39a3 3 0 0 1 6 0v1h-6zm-1.87 39h-3.98l1.72-12h3.98zm3.87-15a1 1 0 0 1 -1 1h-5v-1a1 1 0 0 1 1-1h5zm-5-3a1 1 0 0 1 -1-1v-1h6v1a3 3 0 0 0 .18 1zm6-13a1 1 0 0 0 -1 1v8h-6v-14h2v3h2v-3h6v3h2v-3h2v5zm13 12a1 1 0 0 1 -1 1h-10a1 1 0 0 1 -1-1v-10h12z" fill="#3d9ae2"/><path d="m53 24h2a3 3 0 0 0 3-3v-2h-2v2a1 1 0 0 1 -1 1h-2a1 1 0 0 1 -1-1v-2h-2v2a3 3 0 0 0 3 3z" fill="#3d9ae2"/></g></svg>