<svg viewBox="0 -25 511.99989 511" xmlns="http://www.w3.org/2000/svg"><path d="m506.671875 204.421875c-1.90625-6.589844-7.0625-11.746094-13.652344-13.652344-3.695312-1.070312-91.246093-25.4375-156.457031 39.78125-32.917969 32.929688-38.640625 82.40625-16.347656 118.429688l-44.21875 44.226562v-156.105469c41.234375-9.703124 72.164062-48.757812 72.164062-95.328124 0-92.242188-79.136718-136.933594-82.507812-138.789063-6.007813-3.3125-13.296875-3.3125-19.304688 0-3.371094 1.855469-82.507812 46.546875-82.507812 138.789063 0 46.570312 30.929687 85.625 72.164062 95.328124v156.105469l-44.183594-44.191406c21.644532-34.78125 17.621094-84.453125-16.386718-118.464844-65.207032-65.21875-152.757813-40.847656-156.453125-39.78125-6.589844 1.90625-11.742188 7.0625-13.652344 13.652344-1.066406 3.699219-25.433594 91.269531 39.773437 156.488281 33.425782 33.429688 82.890626 38.335938 118.402344 16.351563l78.234375 78.246093c7.878907 8.03125 20.730469 7.949219 28.53125-.003906l78.203125-78.21875c34.980469 21.777344 84.570313 17.484375 118.425782-16.375 65.207031-65.222656 40.839843-152.792968 39.773437-156.488281zm-344.617187 114.816406-24.433594-24.4375c-7.808594-7.808593-20.46875-7.808593-28.28125 0-7.808594 7.8125-7.808594 20.476563 0 28.285157l24.425781 24.429687c-19.484375 7.199219-43.445313 2.050781-60.386719-14.890625-28.277344-28.285156-37.390625-67.152344-31.847656-105.644531 38.242188-5.511719 77.152344 3.378906 105.625 31.855469 17.457031 17.460937 21.898438 41.5 14.898438 60.402343zm93.945312-178.777343c-11.042969 0-19.996094 8.957031-19.996094 20v34.550781c-18.867187-8.6875-32.171875-29.277344-32.171875-53.238281 0-40.039063 21.085938-73.988282 52.203125-97.261719 17.402344 12.972656 52.132813 45.375 52.132813 97.261719 0 23.960937-13.300781 44.550781-32.171875 53.238281v-34.550781c0-11.042969-8.953125-20-19.996094-20zm182.617188 192.164062c-17.457032 17.460938-41.492188 21.902344-60.390626 14.898438l24.433594-24.433594c7.804688-7.8125 7.804688-20.476563 0-28.285156-7.808594-7.808594-20.46875-7.808594-28.28125 0l-24.421875 24.425781c-7.203125-19.488281-2.054687-43.449219 14.886719-60.394531 28.515625-28.519532 67.632812-37.339844 105.667969-31.847657 3.132812 21.476563 4.785156 68.949219-31.894531 105.636719zm0 0"/></svg>