<?xml version="1.0" encoding="iso-8859-1"?>
<!-- Generator: Adobe Illustrator 19.0.0, SVG Export Plug-In . SVG Version: 6.00 Build 0)  -->
<svg version="1.1" id="Capa_1" xmlns="http://www.w3.org/2000/svg" xmlns:xlink="http://www.w3.org/1999/xlink" x="0px" y="0px"
	 viewBox="0 0 512 512" style="enable-background:new 0 0 512 512;" xml:space="preserve">
<g>
	<g>
		<path d="M256,0C114.517,0,0,114.497,0,256c0,141.484,114.497,256,256,256c141.483,0,256-114.497,256-256
			C512,114.516,397.503,0,256,0z M276,471.079V247.716l78.994,78.995c7.81,7.81,20.474,7.811,28.285,0
			c7.81-7.811,7.81-20.474,0-28.284c-3.291-3.291-111.78-111.782-113.179-113.175c-7.761-7.718-20.377-7.781-28.201,0
			c-0.014,0.013-0.029,0.024-0.042,0.038L128.721,298.426c-7.81,7.811-7.81,20.474,0,28.284c7.811,7.811,20.475,7.811,28.285,0
			L236,247.716v223.363C126.72,461.111,40,369.296,40,256c0-119.377,96.607-216,216-216c119.377,0,216,96.607,216,216
			C472,369.28,385.294,461.109,276,471.079z"/>
	</g>
</g>
<g>
</g>
<g>
</g>
<g>
</g>
<g>
</g>
<g>
</g>
<g>
</g>
<g>
</g>
<g>
</g>
<g>
</g>
<g>
</g>
<g>
</g>
<g>
</g>
<g>
</g>
<g>
</g>
<g>
</g>
</svg>
