<svg height="512pt" viewBox="0 -91 512.00034 512" width="512pt" xmlns="http://www.w3.org/2000/svg"><path d="m512 123.957031c0-41.828125-26.5625-81.015625-67.101562-91.113281-17.222657-4.289062-35.066407-3.742188-51.347657 1.441406-19.21875-21.054687-46.867187-34.285156-77.550781-34.285156-21.695312 0-42.664062 6.699219-60.230469 19.019531-17.21875-11.976562-38.179687-19.019531-60.769531-19.019531-29.625 0-57.878906 12.667969-77.660156 34.351562-12.789063-4.097656-26.675782-5.433593-40.824219-3.363281-45 6.578125-77.175781 46.496094-76.5039062 94.925781.3046872 21.625 8.6250002 40.667969 22.3593752 55.378907-14.332032 17.03125-22.707032 39.691406-22.3593752 64.621093.6796872 47.902344 41.9375002 84.085938 88.6875002 84.085938h333.519531c23.097656 0 45.179688-8.554688 62.175781-24.089844 17.613281-16.101562 27.417969-37.652344 27.601563-60.671875l.003906-1.28125c0-20.324219-6.363281-40.519531-17.914062-56.863281-1.488282-2.105469-3.058594-4.136719-4.703126-6.085938 14.367188-15.316406 22.445313-34.921874 22.613282-55.769531zm-431.144531-63.285156c31.773437-4.644531 61.617187 16.136719 67.945312 47.3125l29.398438-5.96875c-4.433594-21.847656-16.539063-40.289063-33.027344-53.042969 13.613281-12.066406 31.351563-18.972656 49.828125-18.972656 41.90625 0 76 33.644531 76 75h30c0-24.449219-8.480469-46.972656-22.679688-64.835938 11.363282-6.609374 24.328126-10.164062 37.679688-10.164062 41.355469 0 75 33.644531 75 75h30c0-15.753906-3.496094-30.707031-9.738281-44.132812 8.621093-1.402344 17.707031-1.074219 26.382812 1.089843 25.703125 6.402344 44.355469 32.476563 44.355469 62l-.003906 1.027344c-.109375 13.671875-5.695313 26.589844-15.601563 36.628906-6.734375-3.917969-13.957031-6.890625-21.496093-8.765625-17.222657-4.292968-35.066407-3.742187-51.347657 1.4375-19.21875-21.054687-46.867187-34.285156-77.550781-34.285156-21.695312 0-42.664062 6.699219-60.230469 19.019531-17.21875-11.976562-38.179687-19.019531-60.769531-19.019531-29.625 0-57.882812 12.667969-77.660156 34.355469-12.789063-4.101563-26.675782-5.4375-40.824219-3.367188-11.3125 1.652344-21.808594 5.414063-31.179687 10.886719-9.378907-9.566406-15.125-21.996094-15.328126-36.382812-.460937-33.1875 20.925782-60.445313 50.847657-64.820313zm401.140625 184.3125c-.238282 29.820313-27.613282 55.015625-59.777344 55.015625h-333.519531c-31.070313 0-58.253907-23.433594-58.691407-54.507812-.457031-33.183594 20.925782-60.445313 50.847657-64.820313 31.773437-4.640625 61.617187 16.136719 67.945312 47.3125l29.398438-5.96875c-4.433594-21.84375-16.542969-40.285156-33.027344-53.039063 13.613281-12.070312 31.347656-18.976562 49.828125-18.976562 41.90625 0 76 33.644531 76 75h30c0-24.449219-8.480469-46.972656-22.679688-64.835938 11.363282-6.609374 24.328126-10.164062 37.679688-10.164062 41.355469 0 75 33.644531 75 75h30c0-15.753906-3.496094-30.707031-9.738281-44.132812 8.621093-1.402344 17.707031-1.074219 26.382812 1.089843 25.703125 6.402344 44.355469 32.476563 44.355469 62zm0 0"/></svg>