<svg id="Capa_1" enable-background="new 0 0 512 512" height="512" viewBox="0 0 512 512" width="512" xmlns="http://www.w3.org/2000/svg"><g><path d="m180.94 153.016h30.023v30h-30.023z"/><path d="m301.036 153.016h30.023v30h-30.023z"/><path d="m240.988 112.983h30.023v30h-30.023z"/><path d="m481.343 213.063c1.592-11.908.063-24.182-4.66-35.585-6.266-15.127-17.574-27.382-31.806-34.795-1.402-15.983-8.397-31.12-19.975-42.698-11.579-11.58-26.552-18.534-42.678-19.935-7.409-14.25-19.671-25.571-34.815-31.845-8.425-3.489-17.298-5.259-26.372-5.259-6.995 0-13.996 1.086-20.679 3.181-12.3-10.334-27.965-16.104-44.358-16.104s-32.058 5.77-44.358 16.104c-6.683-2.095-13.684-3.181-20.679-3.181-9.074 0-17.947 1.77-26.374 5.26-15.143 6.273-27.404 17.594-34.813 31.844-16.126 1.4-31.099 8.355-42.679 19.936-11.577 11.577-18.573 26.714-19.974 42.699-14.231 7.412-25.54 19.667-31.806 34.795-4.723 11.404-6.252 23.677-4.66 35.584h-30.657v73.769c0 69.422 52.637 126.772 120.096 134.259v60.885h271.809v-60.885c67.458-7.488 120.095-64.838 120.095-134.26v-73.769zm-418.309-24.104c4.353-10.51 12.98-18.559 23.671-22.082l11.132-3.67-.869-11.688c-.835-11.226 3.299-22.276 11.342-30.319 7.359-7.359 17.146-11.412 27.555-11.412.934 0 1.872.033 2.789.1l11.672.843 3.657-11.115c3.52-10.699 11.571-19.335 22.087-23.691 4.768-1.975 9.778-2.976 14.894-2.976 6.034 0 12.077 1.43 17.476 4.135l10.457 5.241 7.631-8.866c7.349-8.536 18.091-13.433 29.474-13.433s22.125 4.896 29.472 13.433l7.631 8.865 10.458-5.239c5.399-2.706 11.442-4.136 17.477-4.136 5.115 0 10.126 1.001 14.892 2.975 10.518 4.357 18.569 12.993 22.089 23.692l3.657 11.115 11.672-.843c.917-.066 1.855-.1 2.789-.1 10.409 0 20.195 4.053 27.553 11.411 8.044 8.044 12.179 19.096 11.344 30.32l-.869 11.688 11.132 3.67c10.69 3.523 19.318 11.572 23.671 22.082 3.207 7.742 3.82 16.179 1.9 24.104h-389.735c-1.92-7.924-1.307-16.361 1.899-24.104zm87.062 263.017v-30.048h211.809v30.048zm331.904-165.144c0 57.95-47.146 105.096-105.096 105.096h-241.808c-57.95 0-105.096-47.146-105.096-105.096v-43.769h452z"/></g></svg>