<svg height="512" viewBox="0 0 1024 1024" width="512" xmlns="http://www.w3.org/2000/svg"><path d="m548.2 93 98.4 199.4c6.2 12.5 18.1 21.2 32 23.2l220 32c34.8 5.1 48.7 47.9 23.5 72.4l-159.2 155.2c-10 9.8-14.6 23.8-12.2 37.6l37.6 219.1c5.9 34.7-30.5 61.1-61.6 44.8l-196.8-103.5c-12.4-6.5-27.2-6.5-39.5 0l-196.9 103.5c-31.2 16.4-67.6-10.1-61.6-44.8l37.6-219.1c2.4-13.8-2.2-27.8-12.2-37.6l-159.2-155.2c-25.2-24.6-11.3-67.4 23.5-72.4l220-32c13.8-2 25.8-10.7 32-23.2l98.4-199.4c15.6-31.6 60.6-31.6 76.2 0z"/></svg>