<svg clip-rule="evenodd" fill-rule="evenodd" height="512" stroke-linejoin="round" stroke-miterlimit="2" viewBox="0 0 24 24" width="512" xmlns="http://www.w3.org/2000/svg"><g transform="translate(-124.235)"><path d="m133.235 5v-.5c0-.663.264-1.299.733-1.768.468-.469 1.104-.732 1.767-.732h1c.663 0 1.299.263 1.768.732s.732 1.105.732 1.768v.5h5c.552 0 1 .448 1 1s-.448 1-1 1h-1v11c0 2.209-1.79 4-4 4-1.832 0-4.167 0-6 0-2.209 0-4-1.791-4-4v-11h-1c-.552 0-1-.448-1-1s.448-1 1-1zm8 2h-10v11c0 1.105.896 2 2 2h6c1.105 0 2-.895 2-2zm-4 3v7c0 .552.448 1 1 1s1-.448 1-1v-7c0-.552-.448-1-1-1s-1 .448-1 1zm-4 0v7c0 .552.448 1 1 1s1-.448 1-1v-7c0-.552-.448-1-1-1s-1 .448-1 1zm4-5v-.5c0-.133-.052-.26-.146-.354-.094-.093-.221-.146-.354-.146-.327 0-.673 0-1 0-.132 0-.259.053-.353.146-.094.094-.147.221-.147.354v.5z"/></g></svg>